<svg xmlns="http://www.w3.org/2000/svg" xmlns:xlink="http://www.w3.org/1999/xlink" width="88.2" height="88.2" viewBox="0 0 88.2 88.2">
  <defs>
    <linearGradient id="linear-gradient" x1="0.119" y1="0.491" x2="0.859" y2="0.508" gradientUnits="objectBoundingBox">
      <stop offset="0" stop-color="#d31a15"/>
      <stop offset="0.072" stop-color="#ca1b1a"/>
      <stop offset="0.193" stop-color="#b01f28"/>
      <stop offset="0.347" stop-color="#86263e"/>
      <stop offset="0.526" stop-color="#4e2e5c"/>
      <stop offset="0.649" stop-color="#223573"/>
      <stop offset="0.759" stop-color="#315191"/>
      <stop offset="0.994" stop-color="#5799dd"/>
      <stop offset="1" stop-color="#5799dd"/>
    </linearGradient>
    <linearGradient id="linear-gradient-2" x1="-0.555" y1="0.484" x2="1.493" y2="0.514" xlink:href="#linear-gradient"/>
  </defs>
  <g id="Group_10638" data-name="Group 10638" transform="translate(2003 523)">
    <path id="Path_9315" data-name="Path 9315" d="M44.1,0A44.1,44.1,0,1,0,88.2,44.1,44.136,44.136,0,0,0,44.1,0Zm0,86.378A42.278,42.278,0,1,1,86.378,44.1,42.308,42.308,0,0,1,44.1,86.378Z" transform="translate(-2003 -523)" fill="url(#linear-gradient)"/>
    <path id="Path_9316" data-name="Path 9316" d="M70.477,63.682V38.918a4.612,4.612,0,0,0-4.636-4.749h0a4.353,4.353,0,0,0-2.714.9v-4.3a4.788,4.788,0,0,0-1.357-3.392,5.2,5.2,0,0,0-3.392-1.47h0a4.6,4.6,0,0,0-2.714.9v-1.47A4.638,4.638,0,0,0,50.915,20.6h0a4.954,4.954,0,0,0-4.862,4.749v1.357a4.6,4.6,0,0,0-2.714-.9h0a4.8,4.8,0,0,0-4.862,4.749V41.067a5.875,5.875,0,0,0-2.827-.792h0A4.778,4.778,0,0,0,30.9,45.025V63.908A19.884,19.884,0,0,0,50.8,83.584,19.214,19.214,0,0,0,64.71,77.817a19.6,19.6,0,0,0,5.767-13.908v-.226Zm-12.1-35.845a2.95,2.95,0,0,1,1.922.792,2.648,2.648,0,0,1,.792,1.922V50.792H55.664V30.664a2.641,2.641,0,0,1,2.714-2.827ZM50.8,81.548A17.881,17.881,0,0,1,32.935,63.8V45.138a2.771,2.771,0,0,1,5.541,0V60.629a1.013,1.013,0,0,0,1.018,1.018,10.346,10.346,0,0,1,7.35,3.053A10.815,10.815,0,0,1,49.9,72.163a1.018,1.018,0,1,0,2.035,0A12.424,12.424,0,0,0,40.512,59.725V30.551a2.852,2.852,0,0,1,2.827-2.714,2.752,2.752,0,0,1,2.714,2.714v13.23a1.018,1.018,0,1,0,2.035,0V25.236a2.777,2.777,0,0,1,2.827-2.714,2.728,2.728,0,0,1,1.922.792,2.648,2.648,0,0,1,.792,1.922V50.792H48.088V47.738a1.018,1.018,0,0,0-2.035,0v3.053H45.035a1.018,1.018,0,0,0,0,2.035h19.11a1.018,1.018,0,0,0,0-2.035H63.127V38.805a2.777,2.777,0,0,1,2.827-2.714,2.686,2.686,0,0,1,2.6,2.827V64.135A17.788,17.788,0,0,1,50.8,81.548Zm0,0" transform="translate(-2009.588 -530.961)" fill="url(#linear-gradient-2)"/>
  </g>
</svg>
