<svg xmlns="http://www.w3.org/2000/svg" width="12.588" height="13.8" viewBox="0 0 12.588 13.8">
  <path id="Path_9324" data-name="Path 9324" d="M2694.938-650.032l-2.733-.746v-1.146a4.536,4.536,0,0,0,1.4-3.16v-.561a3.384,3.384,0,0,0-3.36-3.355,3.383,3.383,0,0,0-3.354,3.357v.56a4.529,4.529,0,0,0,1.492,3.25v1.056l-2.736.747A2.248,2.248,0,0,0,2684-647.9v2.145a.466.466,0,0,0,.466.466.466.466,0,0,0,.466-.466v-2.132a1.316,1.316,0,0,1,.962-1.24l3.077-.839a.467.467,0,0,0,.343-.45v-.853a2.544,2.544,0,0,0,.932.2,2.56,2.56,0,0,0,1.026-.24v.892a.467.467,0,0,0,.343.45l3.09.842a1.238,1.238,0,0,1,.949,1.225v2.238a.466.466,0,0,0,.466.466.467.467,0,0,0,.466-.466V-647.9A2.159,2.159,0,0,0,2694.938-650.032Zm-5.7-2.31a.455.455,0,0,0-.253-.2,3.579,3.579,0,0,1-1.162-2.545v-.557a2.446,2.446,0,0,1,2.422-2.427,2.447,2.447,0,0,1,2.427,2.424v.56c0,1.394-1.081,3.077-2.424,3.077A1.811,1.811,0,0,1,2689.238-652.342Z" transform="translate(-2684 659)" fill="#6b6b6b"/>
</svg>
