<svg xmlns="http://www.w3.org/2000/svg" xmlns:xlink="http://www.w3.org/1999/xlink" width="98.764" height="98.764" viewBox="0 0 98.764 98.764">
  <defs>
    <linearGradient id="linear-gradient" x1="-4.28" y1="0.287" x2="4.086" y2="0.66" gradientUnits="objectBoundingBox">
      <stop offset="0" stop-color="#d31a15"/>
      <stop offset="0.072" stop-color="#c91b1a"/>
      <stop offset="0.193" stop-color="#b01f27"/>
      <stop offset="0.347" stop-color="#86253d"/>
      <stop offset="0.526" stop-color="#4d2e5b"/>
      <stop offset="0.649" stop-color="#223573"/>
      <stop offset="0.759" stop-color="#315191"/>
      <stop offset="0.994" stop-color="#5799dd"/>
      <stop offset="1" stop-color="#5799dd"/>
    </linearGradient>
    <linearGradient id="linear-gradient-2" x1="-21.013" y1="0.094" x2="16.768" y2="0.807" xlink:href="#linear-gradient"/>
    <linearGradient id="linear-gradient-3" x1="-10.235" y1="-0.635" x2="5.723" y2="1.052" xlink:href="#linear-gradient"/>
    <linearGradient id="linear-gradient-4" x1="-8.33" y1="0.106" x2="5.212" y2="0.71" xlink:href="#linear-gradient"/>
    <linearGradient id="linear-gradient-5" x1="0.013" y1="0.478" x2="0.862" y2="0.516" xlink:href="#linear-gradient"/>
    <linearGradient id="linear-gradient-6" x1="-0.553" y1="0.445" x2="1.309" y2="0.539" xlink:href="#linear-gradient"/>
  </defs>
  <g id="Group_10697" data-name="Group 10697" transform="translate(-662.781 -1285.76)">
    <path id="Path_3358" data-name="Path 3358" d="M708.072,1361.4a5.007,5.007,0,1,0,2.642,2.777A4.984,4.984,0,0,0,708.072,1361.4Zm.518,5.708a2.789,2.789,0,1,1-5.1-2.263h0a2.789,2.789,0,0,1,5.1,2.265Z" transform="translate(4.171 8.2)" fill="url(#linear-gradient)"/>
    <path id="Path_3359" data-name="Path 3359" d="M705.855,1360.7a1.108,1.108,0,0,0,1.109-1.109v-3.033a1.109,1.109,0,0,0-2.218,0v3.033A1.108,1.108,0,0,0,705.855,1360.7Z" transform="translate(4.575 7.598)" fill="url(#linear-gradient-2)"/>
    <path id="Path_3360" data-name="Path 3360" d="M714.991,1364.682h-3.033a1.109,1.109,0,0,0,0,2.218h3.033a1.109,1.109,0,0,0,0-2.218Z" transform="translate(5.241 8.605)" fill="url(#linear-gradient-3)"/>
    <path id="Path_3361" data-name="Path 3361" d="M715.007,1358.482a1.109,1.109,0,0,0-1.568-1.568l-3.97,3.97a1.109,1.109,0,1,0,1.568,1.568Z" transform="translate(5.055 7.722)" fill="url(#linear-gradient-4)"/>
    <path id="Path_3362" data-name="Path 3362" d="M712.164,1285.76a49.382,49.382,0,1,0,49.382,49.382A49.438,49.438,0,0,0,712.164,1285.76Zm-30.294,85.494v-11.329a8.327,8.327,0,0,1,6.173-8.031l12.044-3.212a12.532,12.532,0,0,0,24.986.221l11.216,2.991a8.322,8.322,0,0,1,6.168,8.031v11.328a47.042,47.042,0,0,1-60.588,0Zm23.554-24.845v-7.18a12.262,12.262,0,0,0,13.482-.022v7.2a1.106,1.106,0,0,0,.823,1.07l3.156.842a10.313,10.313,0,0,1-20.609-.221l2.325-.621A1.106,1.106,0,0,0,705.423,1346.408Zm39.252,22.853v-9.336a10.541,10.541,0,0,0-7.814-10.173l-15.737-4.2v-7.886a20.661,20.661,0,0,0,3-2.963h-2.969a12.639,12.639,0,0,1-8.986,4.313,11.674,11.674,0,0,1-7.066-2.577l0,0a20.251,20.251,0,0,1-7.525-15.154v-3.139a14.592,14.592,0,1,1,29.184,0v3.139a19.887,19.887,0,0,1-3.053,10.093h2.661a21.178,21.178,0,0,0,2.317-6.744,3.7,3.7,0,0,1-.756-2.225v-6.5a3.691,3.691,0,0,1,.522-1.871,16.785,16.785,0,0,0-32.489-.291,3.672,3.672,0,0,1,.711,2.161v6.5a3.688,3.688,0,0,1-.98,2.494,21.367,21.367,0,0,0,7.517,12.792v7.859l-15.735,4.2a10.547,10.547,0,0,0-7.819,10.173v9.336a47.164,47.164,0,1,1,65.023,0Z" transform="translate(0)" fill="url(#linear-gradient-5)"/>
    <path id="Path_3363" data-name="Path 3363" d="M729.064,1311.637c-1.426-9.391-11.134-15.659-19.523-15.659-6.9,0-17.771,4.985-19.581,15.676a3.168,3.168,0,0,0-2.826,3.145v6.5a3.162,3.162,0,1,0,6.325,0v-6.5a3.147,3.147,0,0,0-1.351-2.578c1.552-9.565,11.262-14.025,17.433-14.025,9.434,0,16.534,7.28,17.4,14.193a3.159,3.159,0,0,0-1.116,2.41v6.5a3.181,3.181,0,0,0,2.053,2.96v3.735a2.83,2.83,0,0,1-2.827,2.828h-9.3a3.761,3.761,0,1,0,0,2.218h9.3a5.051,5.051,0,0,0,5.045-5.046l-.009-3.732a3.183,3.183,0,0,0,2.064-2.963v-6.5A3.167,3.167,0,0,0,729.064,1311.637Zm-37.823,9.658a.944.944,0,1,1-1.889,0v-6.5a.944.944,0,1,1,1.889,0Zm22.38,11.114a1.542,1.542,0,1,1,0-.964,1.093,1.093,0,0,0,0,.964Zm16.31-11.114a.945.945,0,1,1-1.89,0v-6.5a.945.945,0,0,1,1.89,0Z" transform="translate(2.655 1.114)" fill="url(#linear-gradient-6)"/>
  </g>
</svg>
