<svg xmlns="http://www.w3.org/2000/svg" width="40" height="40" viewBox="0 0 30 30">
  <path id="Path_9296" data-name="Path 9296" d="M-61.154,995.982a15.017,15.017,0,0,1-15-15,15.017,15.017,0,0,1,15-15,15.017,15.017,0,0,1,15,15A15.017,15.017,0,0,1-61.154,995.982Zm0-28.932a13.948,13.948,0,0,0-13.932,13.932,13.947,13.947,0,0,0,13.932,13.932,13.948,13.948,0,0,0,13.932-13.932A13.948,13.948,0,0,0-61.154,967.05Zm8.482,7.7a2.354,2.354,0,0,0-3.25,0l-7.567,7.567-2.9-2.9a2.352,2.352,0,0,0-3.249,0,2.3,2.3,0,0,0,0,3.249l4.526,4.526a2.282,2.282,0,0,0,1.625.673,2.281,2.281,0,0,0,1.625-.673L-52.672,978A2.283,2.283,0,0,0-52,976.376,2.283,2.283,0,0,0-52.672,974.75Zm-.812,2.438-9.192,9.19a1.176,1.176,0,0,1-1.625,0l-4.526-4.525a1.151,1.151,0,0,1,0-1.625,1.141,1.141,0,0,1,.813-.337,1.141,1.141,0,0,1,.812.337l3.307,3.307a.575.575,0,0,0,.812,0l7.973-7.972a1.177,1.177,0,0,1,1.625,0,1.14,1.14,0,0,1,.336.812A1.143,1.143,0,0,1-53.484,977.189Z" transform="translate(76.154 -965.982)" fill="#b9b9b9"/>
</svg>
