<svg xmlns="http://www.w3.org/2000/svg" width="15.744" height="10.676" viewBox="0 0 15.744 10.676">
  <path id="Union_1" data-name="Union 1" d="M3268.678-390.53a.5.5,0,0,1,0-.707l8.615-8.617a.5.5,0,0,1,.708,0,.5.5,0,0,1,0,.708l-8.615,8.616a.5.5,0,0,1-.354.146A.5.5,0,0,1,3268.678-390.53Zm2.543-1.129.853-.854a8.523,8.523,0,0,0,1.271.121,8.43,8.43,0,0,0,6.173-2.8,8.528,8.528,0,0,0-2.751-2.016l.744-.742a9.527,9.527,0,0,1,3.052,2.439.5.5,0,0,1,0,.633,9.438,9.438,0,0,1-7.221,3.485A9.463,9.463,0,0,1,3271.221-391.658Zm-5.108-3.218a.5.5,0,0,1,0-.631,9.437,9.437,0,0,1,7.22-3.484,9.641,9.641,0,0,1,2.119.274l-.853.853a8.482,8.482,0,0,0-1.268-.127,8.428,8.428,0,0,0-6.171,2.8,8.444,8.444,0,0,0,2.744,2.023l-.742.742A9.42,9.42,0,0,1,3266.113-394.877Zm6.667,1.658,1.181-1.181a1.113,1.113,0,0,0,.131-.13l1.181-1.183a2.075,2.075,0,0,1,.075.521,2.058,2.058,0,0,1-2.047,2.048A1.987,1.987,0,0,1,3272.78-393.219Zm-1.534-1.978a2.052,2.052,0,0,1,2.051-2.048h0a1.982,1.982,0,0,1,.582.1l-.985.986a1.047,1.047,0,0,0-.569.57l-.986.986A2.047,2.047,0,0,1,3271.245-395.2Z" transform="translate(-3265.467 400.56)" fill="#585858" stroke="rgba(0,0,0,0)" stroke-width="1"/>
</svg>
