<svg xmlns="http://www.w3.org/2000/svg" width="40" height="40" viewBox="0 0 31 31">
  <path id="Union_1" data-name="Union 1" d="M-123,169a15.018,15.018,0,0,1,15-15,15.017,15.017,0,0,1,15,15,15.016,15.016,0,0,1-15,15A15.017,15.017,0,0,1-123,169Zm1.068,0A13.947,13.947,0,0,0-108,182.931,13.947,13.947,0,0,0-94.068,169,13.947,13.947,0,0,0-108,155.068,13.947,13.947,0,0,0-121.932,169Zm17.806,6.255L-108,171.386l-3.872,3.869a1.675,1.675,0,0,1-1.193.494,1.68,1.68,0,0,1-1.193-.493,1.688,1.688,0,0,1,0-2.387l3.871-3.87-3.872-3.869a1.689,1.689,0,0,1,0-2.386,1.673,1.673,0,0,1,1.193-.494,1.674,1.674,0,0,1,1.194.494l3.871,3.869,3.872-3.869a1.677,1.677,0,0,1,1.193-.494,1.675,1.675,0,0,1,1.193.494,1.674,1.674,0,0,1,.495,1.193,1.67,1.67,0,0,1-.495,1.193L-105.61,169l3.87,3.869a1.688,1.688,0,0,1,0,2.387,1.677,1.677,0,0,1-1.193.494A1.68,1.68,0,0,1-104.126,175.255Zm-3.573-4.764,4.17,4.167a.864.864,0,0,0,1.193,0,.844.844,0,0,0,0-1.193l-4.169-4.167a.422.422,0,0,1,0-.6l4.169-4.167a.836.836,0,0,0,.247-.6.836.836,0,0,0-.247-.6.864.864,0,0,0-1.193,0l-4.17,4.167a.422.422,0,0,1-.6,0l-4.17-4.167a.842.842,0,0,0-.6-.247.84.84,0,0,0-.6.247.846.846,0,0,0,0,1.193l4.171,4.167a.425.425,0,0,1,.123.3.425.425,0,0,1-.123.3l-4.17,4.167a.844.844,0,0,0,0,1.193.864.864,0,0,0,1.193,0l4.17-4.167a.421.421,0,0,1,.3-.124A.421.421,0,0,1-107.7,170.492Z" transform="translate(123.5 -153.5)" fill="#b9b9b9" stroke="rgba(0,0,0,0)" stroke-width="1"/>
</svg>
