<?xml version="1.0" encoding="utf-8"?>
<!-- Generator: Adobe Illustrator 21.0.0, SVG Export Plug-In . SVG Version: 6.00 Build 0)  -->
<svg version="1.1" id="Camada_1" xmlns="http://www.w3.org/2000/svg" xmlns:xlink="http://www.w3.org/1999/xlink" x="0px" y="0px"
	 viewBox="0 0 118.1 27" style="enable-background:new 0 0 118.1 27;" xml:space="preserve">
<style type="text/css">
	.st0{fill-rule:evenodd;clip-rule:evenodd;fill:#FFFFFF;}
	.st1{fill:#FFFFFF;}
</style>
<g>
	<path class="st0" d="M8,8.9c3.3,0,6.1,2.2,6.9,5.3H12c-0.7-1.5-2.2-2.5-4-2.5c-2.4,0-4.4,2-4.4,4.4s2,4.4,4.4,4.4
		c1.8,0,3.3-1,4-2.5h2.9c-0.8,3.1-3.6,5.3-6.9,5.3c-4,0-7.2-3.2-7.2-7.2S4,8.9,8,8.9z"/>
	<rect x="16.4" y="8.9" class="st0" width="2.8" height="14.4"/>
	<path class="st0" d="M29,12.4c-0.9-0.5-2-0.7-3.2-0.7c-1.9,0-3.2,0.5-4,1.5c-0.5,0.6-0.8,1.4-0.8,2.4h2.8c0.1-0.4,0.2-0.8,0.4-1
		c0.3-0.3,0.8-0.5,1.5-0.5c0.6,0,1.1,0.1,1.4,0.3c0.3,0.2,0.5,0.5,0.5,0.9c0,0.4-0.2,0.6-0.6,0.8c-0.2,0.1-0.6,0.2-1.2,0.3l-1,0.1
		c-1.1,0.1-1.9,0.4-2.4,0.7c-1.1,0.6-1.6,1.6-1.6,3c0,1.1,0.3,1.8,1,2.4c0.7,0.6,1.3,0.8,2.3,0.8c2.3,0,3.6-1.1,3.6-1.1l0,1.1l2.8,0
		l0-8.1C30.5,13.8,30,12.9,29,12.4z M27.6,18.8c0,1-0.3,1.6-0.8,2c-0.5,0.4-1.1,0.6-1.7,0.6c-0.4,0-0.7-0.1-1-0.3
		c-0.3-0.2-0.4-0.6-0.4-1.1c0-0.6,0.2-1,0.7-1.2c0.3-0.2,0.7-0.3,1.3-0.4l0.7-0.1c0.3-0.1,0.6-0.1,0.8-0.2c0.2-0.1,0.4-0.2,0.6-0.3
		V18.8z"/>
	<path class="st0" d="M35.1,23.3h-2.8V12.2l2.7,0v1.5c0.5-0.7,1.4-1.4,2-1.6c0.4-0.2,0.8-0.2,1.1-0.3c0.3,0,0.7,0,0.7,0l0,2.8
		l-0.5,0l-0.3,0c-1.2,0-2.1,0.8-2.5,1.6c-0.2,0.4-0.3,1.1-0.3,2L35.1,23.3z"/>
	<g>
		<rect x="43.9" y="2.4" class="st0" width="2.7" height="7"/>
		<path class="st0" d="M44.9,11.6c-3.2,0-5.8,2.6-5.8,5.8c0,3.2,2.6,5.8,5.8,5.8c3.2,0,5.8-2.6,5.8-5.8
			C50.7,14.2,48.1,11.6,44.9,11.6z M44.9,20.5c-1.7,0-3.1-1.4-3.1-3.1c0-1.7,1.4-3.1,3.1-3.1c1.7,0,3.1,1.4,3.1,3.1
			C48,19.1,46.6,20.5,44.9,20.5z"/>
		<rect x="52.7" y="14.8" class="st0" width="7" height="2.7"/>
		<rect x="49" y="6.5" transform="matrix(0.7071 -0.7071 0.7071 0.7071 10.2089 40.3901)" class="st0" width="9.7" height="2.7"/>
	</g>
	<g>
		<path class="st1" d="M73.1,19.1c0,1.3-0.4,2.4-1.2,3.1s-1.9,1.1-3.3,1.1h-6.2V8.6h5.9c1.4,0,2.5,0.4,3.4,1.1
			c0.8,0.7,1.2,1.8,1.2,3c0,0.7-0.2,1.4-0.6,2c-0.3,0.5-0.7,0.8-1.2,1C72.5,16.4,73.1,17.5,73.1,19.1z M70,12.9
			c0-0.5-0.2-0.9-0.5-1.2c-0.3-0.3-0.8-0.5-1.4-0.5h-2.8v3.4h2.8c0.6,0,1.1-0.2,1.4-0.5C69.9,13.8,70,13.4,70,12.9z M70.2,19
			c0-0.5-0.2-1-0.5-1.3s-0.8-0.5-1.4-0.5h-3v3.6h3c0.6,0,1.1-0.2,1.4-0.5S70.2,19.5,70.2,19z"/>
		<path class="st1" d="M83.8,13.5l-2,2.1c-0.4-0.4-0.9-0.6-1.4-0.6c-0.5,0-0.9,0.2-1.2,0.5c-0.4,0.4-0.6,0.9-0.6,1.5v6.5h-2.7V12.6
			h2.6v1c0.7-0.8,1.6-1.2,2.7-1.2C82.2,12.4,83.1,12.8,83.8,13.5z"/>
		<path class="st1" d="M93.5,23.4h-2.6v-0.9c-0.7,0.7-1.6,1-2.7,1c-1.2,0-2.1-0.3-2.7-0.9c-0.6-0.6-0.9-1.4-0.9-2.4
			c0-0.9,0.3-1.7,0.9-2.3S87,17,88.2,17h2.5v-0.5c0-1.1-0.7-1.7-2-1.7c-0.9,0-1.6,0.3-2.1,0.9L85,13.9c0.5-0.6,1.1-1,1.7-1.2
			c0.6-0.2,1.3-0.3,2.2-0.3c3.1,0,4.6,1.3,4.6,3.8V23.4z M90.8,19.4v-0.6h-2.1c-1,0-1.5,0.4-1.5,1.2c0,0.8,0.5,1.2,1.5,1.2
			c0.9,0,1.5-0.2,1.8-0.7C90.7,20.4,90.8,20,90.8,19.4z"/>
		<path class="st1" d="M104.5,20c0,1.1-0.4,2-1.3,2.7c-0.8,0.6-1.9,0.9-3.3,0.9c-1,0-1.8-0.1-2.5-0.3C96.7,23,96,22.6,95.4,22
			l1.8-1.8c0.7,0.7,1.6,1,2.9,1c1.3,0,1.9-0.4,1.9-1.1c0-0.6-0.4-0.9-1.1-1l-1.7-0.2c-2.1-0.2-3.2-1.2-3.2-3c0-1.1,0.4-1.9,1.3-2.6
			c0.8-0.6,1.7-0.9,2.9-0.9c1.9,0,3.2,0.4,4.1,1.3l-1.7,1.7c-0.5-0.5-1.4-0.7-2.5-0.7c-1,0-1.5,0.3-1.5,1c0,0.6,0.4,0.9,1.1,0.9
			l1.7,0.2C103.5,17,104.5,18.1,104.5,20z"/>
		<path class="st1" d="M109.5,10.7h-2.7V8.5h2.7V10.7z M109.5,23.4h-2.7V12.6h2.7V23.4z"/>
		<path class="st1" d="M117.1,23.4h-1.5c-1,0-1.8-0.3-2.4-1c-0.5-0.6-0.7-1.3-0.7-2.1V8.6h2.7v11.5c0,0.7,0.3,1,0.9,1h1V23.4z"/>
	</g>
</g>
</svg>
